<svg xmlns="http://www.w3.org/2000/svg" width="400" height="400" viewBox="0 0 400 400"><g transform="rotate(-16 200 230)"><path d="M 48 208 C 48 116, 118 78, 200 78 C 282 78, 352 116, 352 208 C 352 266, 336 314, 296 340 C 266 360, 234 366, 200 366 C 166 366, 134 360, 104 340 C 64 314, 48 266, 48 208 Z" fill="#eadfc7" stroke="#2f2923" stroke-width="9" stroke-linecap="round" stroke-linejoin="round" /><g transform="rotate(24.6 92 110)"><path d="M 92 110 C 56 114, 34 154, 46 204 C 52 228, 84 226, 96 196 C 102 166, 100 134, 92 110 Z" fill="#2f2923" stroke="#2f2923" stroke-width="5" stroke-linecap="round" stroke-linejoin="round" /><path d="M 84 124 C 62 140, 52 164, 56 194" fill="none" stroke="#9a8f80" stroke-width="3" stroke-linecap="round" stroke-linejoin="round" /></g><g transform="rotate(-19.0 308 110)"><path d="M 308 110 C 344 114, 366 154, 354 204 C 348 228, 316 226, 304 196 C 298 166, 300 134, 308 110 Z" fill="#2f2923" stroke="#2f2923" stroke-width="5" stroke-linecap="round" stroke-linejoin="round" /><path d="M 316 124 C 338 140, 348 164, 344 194" fill="none" stroke="#9a8f80" stroke-width="3" stroke-linecap="round" stroke-linejoin="round" /></g><ellipse cx="96" cy="280" rx="26" ry="16" fill="#dccfb3" stroke="none" stroke-width="0" transform="rotate(0 96 280)"/><ellipse cx="304" cy="280" rx="26" ry="16" fill="#dccfb3" stroke="none" stroke-width="0" transform="rotate(0 304 280)"/><path d="M 186 82 C 190 64, 204 56, 214 62 C 208 66, 204 74, 206 82" fill="#eadfc7" stroke="#2f2923" stroke-width="5" stroke-linecap="round" stroke-linejoin="round" /><path d="M 214 62 C 224 52, 238 58, 236 70" fill="none" stroke="#2f2923" stroke-width="5" stroke-linecap="round" stroke-linejoin="round" /><path d="M 200 184 C 178 194, 132 220, 126 266 C 122 314, 156 344, 200 344 C 244 344, 278 314, 274 266 C 268 220, 222 194, 200 184 Z" fill="#2f2923" stroke="#2f2923" stroke-width="5" stroke-linecap="round" stroke-linejoin="round" /><clipPath id="ojo138206"><circle cx="138" cy="206" r="52"/></clipPath><circle cx="138" cy="206" r="52" fill="#fff8ea" stroke="none" stroke-width="0"/><g clip-path="url(#ojo138206)"><circle cx="143.824" cy="203.504" r="38.48" fill="#2f2923" stroke="none" stroke-width="0"/><circle cx="130.304" cy="188.944" r="13.52" fill="#fff8ea" stroke="none" stroke-width="0"/><circle cx="154.22400000000002" cy="215.98399999999998" r="5.2" fill="#fff8ea" stroke="none" stroke-width="0"/><rect x="82" y="237.2" width="112" height="52" fill="#eadfc7"/><path d="M 84 237.2 L 192 237.2" fill="none" stroke="#2f2923" stroke-width="6" stroke-linecap="round" stroke-linejoin="round" /></g><circle cx="138" cy="206" r="52" fill="none" stroke="#2f2923" stroke-width="7"/><path d="M 232 206 C 248 190, 276 190, 292 206" fill="none" stroke="#2f2923" stroke-width="9" stroke-linecap="round" stroke-linejoin="round" /><path d="M 112.3 145.6 Q 138.0 134.0 163.7 138.4" fill="none" stroke="#2f2923" stroke-width="8" stroke-linecap="round" stroke-linejoin="round" /><path d="M 286.7 142.0 Q 262.0 142.0 237.3 158.0" fill="none" stroke="#2f2923" stroke-width="8" stroke-linecap="round" stroke-linejoin="round" /><path d="M 172 250 C 172 232, 228 232, 228 250 C 228 270, 210 282, 200 282 C 190 282, 172 270, 172 250 Z" fill="#463f38" stroke="none" stroke-width="0" stroke-linecap="round" stroke-linejoin="round" /><path d="M 186 254 C 182 258, 184 264, 190 262" fill="none" stroke="#9a8f80" stroke-width="3" stroke-linecap="round" stroke-linejoin="round" /><path d="M 214 254 C 218 258, 216 264, 210 262" fill="none" stroke="#9a8f80" stroke-width="3" stroke-linecap="round" stroke-linejoin="round" /><path d="M 200 282 L 200 296" fill="none" stroke="#d6c7ad" stroke-width="4" stroke-linecap="round" stroke-linejoin="round" /><path d="M 152 306 C 176 300, 212 322, 254 288" fill="none" stroke="#fff8ea" stroke-width="6" stroke-linecap="round" stroke-linejoin="round" /><path d="M 204 308 C 196 340, 216 380, 250 372 C 276 366, 270 330, 254 304 Z" fill="#a8947c" stroke="#2f2923" stroke-width="5" stroke-linecap="round" stroke-linejoin="round" /><path d="M 232 318 C 234 338, 238 354, 246 366" fill="none" stroke="#2f2923" stroke-width="3" stroke-linecap="round" stroke-linejoin="round" /><path d="M 48 208 C 48 116, 118 78, 200 78 C 282 78, 352 116, 352 208 C 352 266, 336 314, 296 340 C 266 360, 234 366, 200 366 C 166 366, 134 360, 104 340 C 64 314, 48 266, 48 208 Z" fill="none" stroke="#2f2923" stroke-width="9" stroke-linecap="round" stroke-linejoin="round" /></g></svg>