<svg xmlns="http://www.w3.org/2000/svg" width="400" height="400" viewBox="0 0 400 400"><rect x="70" y="90" width="260" height="220" rx="10" fill="#fff8ea" stroke="#2f2923" stroke-width="7"/><circle cx="70" cy="110" r="8" fill="none" stroke="#2f2923" stroke-width="5"/><circle cx="70" cy="146" r="8" fill="none" stroke="#2f2923" stroke-width="5"/><circle cx="70" cy="182" r="8" fill="none" stroke="#2f2923" stroke-width="5"/><circle cx="70" cy="218" r="8" fill="none" stroke="#2f2923" stroke-width="5"/><circle cx="70" cy="254" r="8" fill="none" stroke="#2f2923" stroke-width="5"/><circle cx="70" cy="290" r="8" fill="none" stroke="#2f2923" stroke-width="5"/><path d="M 108 138 L 300 138" fill="none" stroke="#d6c7ad" stroke-width="3" stroke-linecap="round" stroke-linejoin="round" /><path d="M 108 138 q 6 -9 12 0 q 6 9 12 0 q 6 -9 12 0 q 6 9 12 0 q 6 -9 12 0 q 6 9 12 0 q 6 -9 12 0 q 6 9 12 0 q 6 -9 12 0 q 6 9 12 0 q 6 -9 12 0 q 6 9 12 0 q 6 -9 12 0 q 6 9 12 0 q 6 -9 12 0 q 6 9 12 0" fill="none" stroke="#756b5e" stroke-width="4" stroke-linecap="round" stroke-linejoin="round" /><path d="M 108 180 L 300 180" fill="none" stroke="#d6c7ad" stroke-width="3" stroke-linecap="round" stroke-linejoin="round" /><path d="M 108 180 q 6 -9 12 0 q 6 9 12 0 q 6 -9 12 0 q 6 9 12 0 q 6 -9 12 0 q 6 9 12 0 q 6 -9 12 0 q 6 9 12 0 q 6 -9 12 0 q 6 9 12 0 q 6 -9 12 0 q 6 9 12 0 q 6 -9 12 0 q 6 9 12 0 q 6 -9 12 0 q 6 9 12 0" fill="none" stroke="#756b5e" stroke-width="4" stroke-linecap="round" stroke-linejoin="round" /><path d="M 108 222 L 300 222" fill="none" stroke="#d6c7ad" stroke-width="3" stroke-linecap="round" stroke-linejoin="round" /><path d="M 108 222 q 6 -9 12 0 q 6 9 12 0 q 6 -9 12 0 q 6 9 12 0 q 6 -9 12 0 q 6 9 12 0 q 6 -9 12 0 q 6 9 12 0 q 6 -9 12 0 q 6 9 12 0 q 6 -9 12 0 q 6 9 12 0 q 6 -9 12 0 q 6 9 12 0 q 6 -9 12 0 q 6 9 12 0" fill="none" stroke="#756b5e" stroke-width="4" stroke-linecap="round" stroke-linejoin="round" /><path d="M 108 264 L 300 264" fill="none" stroke="#d6c7ad" stroke-width="3" stroke-linecap="round" stroke-linejoin="round" /><path d="M 108 264 q 6 -9 12 0 q 6 9 12 0 q 6 -9 12 0 q 6 9 12 0 q 6 -9 12 0 q 6 9 12 0 q 6 -9 12 0 q 6 9 12 0 q 6 -9 12 0 q 6 9 12 0 q 6 -9 12 0 q 6 9 12 0 q 6 -9 12 0 q 6 9 12 0" fill="none" stroke="#756b5e" stroke-width="4" stroke-linecap="round" stroke-linejoin="round" /><path d="M 261.6 264 L 275.6 242 L 357.6 136 L 377.6 152 L 295.6 258 Z" fill="#d6c7ad" stroke="#2f2923" stroke-width="6" stroke-linecap="round" stroke-linejoin="round" /><path d="M 261.6 264 L 275.6 242 L 295.6 258 Z" fill="#2f2923" stroke="#2f2923" stroke-width="5" stroke-linecap="round" stroke-linejoin="round" /></svg>